<?xml version="1.0" encoding="UTF-8" standalone="no"?>
<!DOCTYPE svg PUBLIC "-//W3C//DTD SVG 1.1//EN" "http://www.w3.org/Graphics/SVG/1.1/DTD/svg11.dtd">
<svg width="100%" height="100%" viewBox="0 0 2343 158" version="1.1" xmlns="http://www.w3.org/2000/svg" xmlns:xlink="http://www.w3.org/1999/xlink" xml:space="preserve" xmlns:serif="http://www.serif.com/" style="fill-rule:evenodd;clip-rule:evenodd;stroke-linejoin:round;stroke-miterlimit:2;">
    <g transform="matrix(2.08333,0,0,2.08333,-378.621,-470.168)">
        <g transform="matrix(1,0,0,1,0,523)">
            <g transform="matrix(1.49306,0,0,1,-81.2307,-430)">
                <path d="M184.73,134.76L208.614,134.76C209.373,134.76 209.971,134.587 210.408,134.24C210.846,133.894 211.238,133.555 211.584,133.225C211.93,132.895 212.326,132.73 212.772,132.73C213.357,132.73 213.811,132.942 214.132,133.365C214.454,133.788 214.702,134.503 214.876,135.51L217.16,151.26C217.272,152.053 217.239,152.702 217.063,153.205C216.886,153.708 216.575,154.02 216.128,154.141C215.708,154.274 215.336,154.212 215.01,153.955C214.684,153.699 214.411,153.214 214.193,152.5C213.13,148.667 212.214,145.792 211.443,143.875C210.673,141.958 209.872,140.668 209.039,140.005C208.206,139.342 207.149,139.01 205.868,139.01L200.583,139.01L200.583,197.56C200.583,198.273 200.728,198.853 201.019,199.3C201.309,199.747 201.72,200.067 202.251,200.26L204.448,200.87C205.3,201.217 205.727,201.9 205.727,202.92C205.727,204.147 205.175,204.76 204.072,204.76L189.271,204.76C188.703,204.76 188.286,204.592 188.018,204.255C187.75,203.918 187.616,203.473 187.616,202.92C187.616,201.9 188.043,201.217 188.895,200.87L191.092,200.26C191.632,200.067 192.046,199.747 192.331,199.3C192.617,198.853 192.76,198.273 192.76,197.56L192.76,139.01L187.476,139.01C186.217,139.01 185.168,139.342 184.331,140.005C183.494,140.668 182.69,141.958 181.92,143.875C181.15,145.792 180.227,148.667 179.15,152.5C178.945,153.214 178.676,153.699 178.344,153.955C178.011,154.212 177.635,154.274 177.215,154.141C176.777,154.02 176.47,153.708 176.294,153.205C176.117,152.702 176.081,152.053 176.184,151.26L178.468,135.51C178.642,134.503 178.889,133.788 179.211,133.365C179.532,132.942 179.985,132.73 180.57,132.73C181.03,132.73 181.43,132.895 181.769,133.225C182.109,133.555 182.501,133.894 182.945,134.24C183.389,134.587 183.984,134.76 184.73,134.76Z" style="fill-rule:nonzero;"/>
                <path d="M257.781,148L260.708,149.46L250.407,196.82C250.251,197.493 250.127,198.126 250.035,198.72C249.944,199.313 249.898,199.997 249.898,200.77L249.898,202.56C249.898,203.267 249.772,203.81 249.519,204.19C249.267,204.57 248.927,204.76 248.498,204.76L242.765,204.76C242.3,204.76 241.938,204.57 241.679,204.19C241.42,203.81 241.291,203.267 241.291,202.56L241.291,200.77C241.291,200.183 241.254,199.672 241.18,199.235C241.107,198.799 240.978,198.134 240.795,197.24L229.236,141.97C229.052,141.09 228.826,140.45 228.556,140.05C228.285,139.65 227.92,139.337 227.461,139.11L225.933,138.48C225.469,138.26 225.151,137.987 224.979,137.66C224.807,137.334 224.721,136.954 224.721,136.52C224.721,135.967 224.859,135.535 225.136,135.225C225.413,134.915 225.844,134.76 226.429,134.76L240.374,134.76C240.954,134.76 241.383,134.92 241.66,135.24C241.937,135.56 242.075,136.007 242.075,136.58C242.075,137.507 241.671,138.107 240.863,138.38L238.291,138.96C237.733,139.127 237.409,139.495 237.32,140.065C237.231,140.635 237.311,141.55 237.561,142.81L248.974,197.96L246.221,201.01L257.781,148ZM279.019,136.6C279.019,136.014 279.163,135.56 279.451,135.24C279.739,134.92 280.162,134.76 280.721,134.76L291.021,134.76C291.629,134.76 292.064,134.925 292.327,135.255C292.591,135.585 292.722,136.023 292.722,136.57C292.722,136.997 292.636,137.347 292.465,137.62C292.293,137.894 291.943,138.174 291.416,138.46L290.037,139.13C289.403,139.504 288.877,140.081 288.459,140.861C288.042,141.64 287.666,142.887 287.331,144.6L276.796,196.82C276.635,197.707 276.51,198.42 276.42,198.96C276.331,199.5 276.286,200.104 276.286,200.77L276.286,202.56C276.286,203.267 276.164,203.81 275.918,204.19C275.673,204.57 275.335,204.76 274.907,204.76L268.812,204.76C268.37,204.76 268.019,204.57 267.76,204.19C267.501,203.81 267.372,203.267 267.372,202.56L267.372,200.77C267.372,200.223 267.362,199.698 267.342,199.195C267.322,198.692 267.216,197.98 267.023,197.06L255.952,141.97C255.734,140.897 255.518,140.175 255.306,139.805C255.094,139.435 254.785,139.164 254.378,138.991L252.865,138.36C252.405,138.147 252.087,137.904 251.91,137.63C251.734,137.357 251.646,137.014 251.646,136.6C251.646,136.014 251.79,135.56 252.078,135.24C252.366,134.92 252.789,134.76 253.347,134.76L266.964,134.76C267.544,134.76 267.973,134.92 268.25,135.24C268.526,135.56 268.665,136.014 268.665,136.6C268.665,137.06 268.561,137.442 268.353,137.745C268.145,138.048 267.812,138.287 267.352,138.46L264.867,139.02C264.345,139.187 264.03,139.517 263.923,140.01C263.816,140.503 263.891,141.443 264.151,142.83L275.141,197.84L272.804,200.5L284.123,144.23C284.435,142.684 284.489,141.514 284.283,140.72C284.078,139.927 283.471,139.34 282.461,138.96L280.231,138.38C279.789,138.207 279.477,137.975 279.294,137.685C279.11,137.395 279.019,137.033 279.019,136.6Z" style="fill-rule:nonzero;"/>
                <path d="M325.561,133.09C329.119,133.09 332.351,134.002 335.256,135.825C338.16,137.648 340.658,140.22 342.75,143.54C344.842,146.86 346.453,150.782 347.583,155.305C348.712,159.828 349.277,164.807 349.277,170.24C349.277,175.52 348.714,180.377 347.589,184.81C346.464,189.243 344.86,193.087 342.777,196.34C340.694,199.594 338.203,202.114 335.303,203.9C332.402,205.687 329.184,206.58 325.648,206.58C322.138,206.58 318.941,205.669 316.057,203.845C313.172,202.022 310.685,199.45 308.595,196.13C306.506,192.81 304.896,188.883 303.767,184.35C302.637,179.817 302.072,174.833 302.072,169.4C302.072,164.12 302.632,159.269 303.75,154.845C304.868,150.422 306.466,146.583 308.542,143.33C310.618,140.077 313.096,137.557 315.976,135.77C318.856,133.983 322.051,133.09 325.561,133.09ZM341.24,176.68C341.24,172.294 340.946,168.134 340.359,164.201C339.772,160.267 338.948,156.679 337.887,153.436C336.827,150.192 335.571,147.384 334.12,145.01C332.669,142.637 331.07,140.802 329.325,139.505C327.579,138.208 325.735,137.56 323.793,137.56C321.087,137.56 318.713,138.58 316.673,140.62C314.632,142.66 313.044,145.577 311.908,149.37C310.771,153.164 310.203,157.703 310.203,162.99C310.203,167.397 310.493,171.572 311.074,175.515C311.654,179.458 312.471,183.056 313.525,186.31C314.579,189.563 315.828,192.382 317.273,194.765C318.717,197.148 320.309,198.988 322.048,200.285C323.787,201.581 325.621,202.23 327.55,202.23C330.292,202.23 332.687,201.205 334.736,199.155C336.786,197.105 338.382,194.174 339.525,190.361C340.668,186.547 341.24,181.987 341.24,176.68Z" style="fill-rule:nonzero;"/>
            </g>
            <g transform="matrix(1,0,0,1,-7.98062,-0.05)">
                <g transform="matrix(1.49306,0,0,1,-41.5121,-430)">
                    <path d="M395.718,134.76C396.504,134.76 397.134,134.587 397.607,134.24C398.081,133.894 398.506,133.555 398.883,133.225C399.261,132.895 399.666,132.73 400.099,132.73C400.648,132.73 401.067,132.937 401.355,133.35C401.643,133.764 401.878,134.474 402.061,135.48L404.667,149.75C404.8,150.423 404.758,150.983 404.539,151.43C404.321,151.877 403.997,152.153 403.568,152.26C403.175,152.374 402.813,152.312 402.48,152.075C402.147,151.839 401.871,151.364 401.653,150.65C400.648,147.29 399.727,144.774 398.89,143.1C398.053,141.427 397.155,140.306 396.197,139.736C395.24,139.165 394.071,138.88 392.691,138.88L383.429,138.88L383.429,197.56C383.429,198.273 383.567,198.871 383.844,199.355C384.121,199.838 384.538,200.14 385.096,200.26L388.492,200.85C388.992,200.964 389.348,201.187 389.56,201.52C389.772,201.854 389.878,202.32 389.878,202.92C389.878,203.473 389.748,203.918 389.486,204.255C389.225,204.592 388.804,204.76 388.224,204.76L372.116,204.76C371.549,204.76 371.131,204.592 370.863,204.255C370.595,203.918 370.461,203.473 370.461,202.92C370.461,201.9 370.888,201.217 371.741,200.87L373.938,200.26C374.478,200.067 374.891,199.747 375.177,199.3C375.463,198.853 375.606,198.273 375.606,197.56L375.606,141.96C375.606,141.247 375.463,140.667 375.177,140.22C374.891,139.773 374.478,139.453 373.938,139.26L371.741,138.65C370.888,138.304 370.461,137.62 370.461,136.6C370.461,136.014 370.595,135.56 370.863,135.24C371.131,134.92 371.549,134.76 372.116,134.76L395.718,134.76ZM379.986,169.43L391.7,169.43C393.08,169.43 394.044,169.034 394.593,168.24C395.142,167.447 395.535,165.88 395.772,163.54C395.862,162.9 396.01,162.425 396.218,162.115C396.425,161.805 396.703,161.62 397.052,161.56C397.824,161.44 398.315,162.016 398.525,163.29L400.956,177.66C401.077,178.36 401.068,178.914 400.929,179.32C400.791,179.727 400.539,180.017 400.173,180.19C399.802,180.343 399.457,180.319 399.138,180.115C398.819,179.912 398.527,179.517 398.263,178.93C397.737,177.464 397.242,176.335 396.78,175.545C396.318,174.755 395.795,174.215 395.213,173.925C394.63,173.635 393.881,173.49 392.966,173.49L379.986,173.49L379.986,169.43Z" style="fill-rule:nonzero;"/>
                </g>
                <g transform="matrix(1.49306,0,0,1,-41.5121,-430)">
                    <path d="M427.057,197.56C427.057,198.273 427.202,198.853 427.492,199.3C427.783,199.747 428.193,200.067 428.725,200.26L430.921,200.87C431.774,201.217 432.201,201.9 432.201,202.92C432.201,203.473 432.07,203.918 431.809,204.255C431.548,204.592 431.127,204.76 430.547,204.76L415.744,204.76C415.177,204.76 414.76,204.592 414.492,204.255C414.224,203.918 414.09,203.473 414.09,202.92C414.09,201.9 414.517,201.217 415.369,200.87L417.566,200.26C418.107,200.067 418.52,199.747 418.805,199.3C419.091,198.853 419.234,198.273 419.234,197.56L419.234,141.96C419.234,141.247 419.091,140.667 418.805,140.22C418.52,139.773 418.107,139.453 417.566,139.26L415.369,138.65C414.517,138.304 414.09,137.62 414.09,136.6C414.09,136.014 414.224,135.56 414.492,135.24C414.76,134.92 415.177,134.76 415.744,134.76L430.547,134.76C431.127,134.76 431.548,134.92 431.809,135.24C432.07,135.56 432.201,136.014 432.201,136.6C432.201,137.62 431.774,138.304 430.921,138.65L428.725,139.26C428.193,139.453 427.783,139.773 427.492,140.22C427.202,140.667 427.057,141.247 427.057,141.96L427.057,197.56Z" style="fill-rule:nonzero;"/>
                </g>
                <g transform="matrix(1.49306,0,0,1,-41.5121,-430)">
                    <path d="M508.212,138.65L506.015,139.26C505.484,139.453 505.073,139.773 504.783,140.22C504.493,140.667 504.348,141.247 504.348,141.96L504.348,197.13C504.348,198.37 504.608,199.265 505.128,199.815C505.648,200.365 506.462,200.64 507.569,200.64L514.608,200.64C515.912,200.64 517.012,200.39 517.907,199.89C518.802,199.39 519.59,198.51 520.271,197.25C520.952,195.99 521.619,194.21 522.27,191.91L524.152,185.21C524.371,184.523 524.63,184.053 524.929,183.8C525.229,183.547 525.592,183.487 526.021,183.62C526.472,183.754 526.787,184.049 526.965,184.505C527.144,184.962 527.164,185.58 527.026,186.36L524.179,203.77C523.996,204.764 523.751,205.497 523.442,205.97C523.134,206.444 522.706,206.68 522.157,206.68C521.71,206.68 521.29,206.52 520.897,206.2C520.504,205.88 520.072,205.56 519.601,205.24C519.13,204.92 518.535,204.76 517.816,204.76L493.035,204.76C492.468,204.76 492.051,204.592 491.783,204.255C491.515,203.918 491.381,203.473 491.381,202.92C491.381,201.9 491.807,201.217 492.66,200.87L494.857,200.26C495.397,200.067 495.81,199.747 496.096,199.3C496.382,198.853 496.525,198.273 496.525,197.56L496.525,141.96C496.525,141.247 496.382,140.667 496.096,140.22C495.81,139.773 495.397,139.453 494.857,139.26L492.66,138.65C491.807,138.304 491.381,137.62 491.381,136.6C491.381,136.014 491.515,135.56 491.783,135.24C492.051,134.92 492.468,134.76 493.035,134.76L507.837,134.76C508.418,134.76 508.839,134.92 509.1,135.24C509.361,135.56 509.491,136.014 509.491,136.6C509.491,137.62 509.065,138.304 508.212,138.65Z" style="fill-rule:nonzero;"/>
                </g>
                <g transform="matrix(1.49306,0,0,1,-41.5121,-430)">
                    <path d="M610.11,206.35C608.141,206.35 606.451,205.987 605.04,205.26C603.629,204.534 602.483,203.812 601.604,203.095C600.724,202.379 600.101,202.02 599.735,202.02C599.347,202.02 599.046,202.239 598.831,202.675C598.617,203.112 598.42,203.62 598.242,204.2C598.063,204.78 597.862,205.289 597.639,205.725C597.416,206.162 597.105,206.38 596.708,206.38C596.337,206.38 596.032,206.205 595.793,205.855C595.554,205.505 595.384,204.94 595.281,204.16L592.81,188.43C592.721,187.803 592.763,187.265 592.937,186.815C593.111,186.365 593.404,186.036 593.814,185.83C594.252,185.61 594.635,185.628 594.963,185.885C595.291,186.142 595.574,186.627 595.81,187.34C596.989,190.913 598.321,193.783 599.806,195.95C601.29,198.117 602.874,199.69 604.558,200.67C606.241,201.65 607.953,202.14 609.695,202.14C612.191,202.14 614.141,201.133 615.545,199.12C616.949,197.107 617.658,194.477 617.671,191.23C617.685,189.19 617.38,187.305 616.757,185.575C616.134,183.845 614.953,182.169 613.214,180.545C611.475,178.922 608.933,177.267 605.589,175.58C602.254,173.867 599.577,171.943 597.558,169.81C595.54,167.677 594.075,165.225 593.165,162.455C592.254,159.685 591.798,156.52 591.798,152.96C591.798,149.04 592.411,145.615 593.637,142.685C594.862,139.755 596.578,137.48 598.784,135.86C600.99,134.24 603.548,133.43 606.459,133.43C608.572,133.43 610.296,133.774 611.634,134.46C612.971,135.147 614.047,135.842 614.862,136.545C615.677,137.248 616.339,137.6 616.848,137.6C617.339,137.6 617.668,137.252 617.835,136.555C618.003,135.858 618.187,135.154 618.388,134.44C618.589,133.727 618.975,133.37 619.547,133.37C619.94,133.37 620.261,133.557 620.511,133.93C620.761,134.303 620.985,134.98 621.181,135.96L624.423,152.15C624.566,152.864 624.552,153.505 624.383,154.075C624.213,154.645 623.921,155.034 623.505,155.241C623.068,155.447 622.681,155.423 622.346,155.17C622.012,154.917 621.728,154.457 621.496,153.791C620.174,149.77 618.741,146.582 617.196,144.225C615.651,141.869 614.031,140.177 612.337,139.15C610.642,138.124 608.898,137.61 607.102,137.61C604.549,137.61 602.512,138.7 600.991,140.88C599.471,143.06 598.711,145.93 598.711,149.49C598.711,151.577 599.03,153.529 599.668,155.345C600.307,157.162 601.476,158.919 603.175,160.615C604.874,162.312 607.306,164.037 610.472,165.79C613.941,167.697 616.689,169.71 618.716,171.83C620.744,173.95 622.194,176.305 623.067,178.895C623.94,181.485 624.369,184.433 624.356,187.74C624.342,191.14 623.781,194.25 622.671,197.07C621.562,199.89 619.953,202.142 617.846,203.825C615.738,205.508 613.159,206.35 610.11,206.35Z" style="fill-rule:nonzero;"/>
                </g>
                <g transform="matrix(0.931362,0,0,1,77.7434,0.677957)">
                    <g transform="matrix(0.0567259,0,0,0.73895,581.62,-467.603)">
                        <path d="M961,235L119,235" style="fill:none;stroke:black;stroke-width:9.54px;stroke-miterlimit:1.5;"/>
                    </g>
                    <g transform="matrix(0.0567259,0,0,0.73895,581.62,-401.836)">
                        <path d="M961,235L119,235" style="fill:none;stroke:black;stroke-width:9.54px;stroke-miterlimit:1.5;"/>
                    </g>
                    <g transform="matrix(0.0567259,0,0,0.73895,581.62,-423.758)">
                        <path d="M961,235L119,235" style="fill:none;stroke:black;stroke-width:9.54px;stroke-miterlimit:1.5;"/>
                    </g>
                    <g transform="matrix(0.0567259,0,0,0.73895,581.62,-445.681)">
                        <path d="M961,235L119,235" style="fill:none;stroke:black;stroke-width:9.54px;stroke-miterlimit:1.5;"/>
                    </g>
                </g>
                <g transform="matrix(0.739202,0,0,0.739202,247.191,-147.702)">
                    <g transform="matrix(4.03866e-17,-0.219855,-0.219855,-4.03866e-17,847.474,-73.589)">
                        <path d="M299.666,572C299.666,539.437 326.103,513 358.666,513C391.229,513 417.666,539.437 417.666,572" style="fill:none;stroke:black;stroke-width:30.77px;stroke-miterlimit:1.5;"/>
                    </g>
                    <g transform="matrix(7.2875e-17,-0.396713,-0.396713,-7.2875e-17,948.636,-10.1559)">
                        <path d="M299.666,572C299.666,539.437 326.103,513 358.666,513C391.229,513 417.666,539.437 417.666,572" style="fill:none;stroke:black;stroke-width:17.05px;stroke-miterlimit:1.5;"/>
                    </g>
                    <g transform="matrix(1.05506e-16,-0.574349,-0.574349,-1.05506e-16,1050.24,53.5563)">
                        <path d="M299.666,572C299.666,539.437 326.103,513 358.666,513C391.229,513 417.666,539.437 417.666,572" style="fill:none;stroke:black;stroke-width:11.78px;stroke-miterlimit:1.5;"/>
                    </g>
                    <g transform="matrix(1.38504e-16,-0.753981,-0.753981,-1.38504e-16,1152.99,117.984)">
                        <path d="M299.666,572C299.666,539.437 326.103,513 358.666,513C391.229,513 417.666,539.437 417.666,572" style="fill:none;stroke:black;stroke-width:8.97px;stroke-miterlimit:1.5;"/>
                    </g>
                </g>
                <g transform="matrix(0.739202,0,0,0.739202,745.417,-146.593)">
                    <g transform="matrix(4.03866e-17,-0.219855,-0.219855,-4.03866e-17,847.474,-73.589)">
                        <path d="M299.666,572C299.666,539.437 326.103,513 358.666,513C391.229,513 417.666,539.437 417.666,572" style="fill:none;stroke:black;stroke-width:30.77px;stroke-miterlimit:1.5;"/>
                    </g>
                    <g transform="matrix(7.2875e-17,-0.396713,-0.396713,-7.2875e-17,948.636,-10.1559)">
                        <path d="M299.666,572C299.666,539.437 326.103,513 358.666,513C391.229,513 417.666,539.437 417.666,572" style="fill:none;stroke:black;stroke-width:17.05px;stroke-miterlimit:1.5;"/>
                    </g>
                    <g transform="matrix(1.05506e-16,-0.574349,-0.574349,-1.05506e-16,1050.24,53.5563)">
                        <path d="M299.666,572C299.666,539.437 326.103,513 358.666,513C391.229,513 417.666,539.437 417.666,572" style="fill:none;stroke:black;stroke-width:11.78px;stroke-miterlimit:1.5;"/>
                    </g>
                    <g transform="matrix(1.38504e-16,-0.753981,-0.753981,-1.38504e-16,1152.99,117.984)">
                        <path d="M299.666,572C299.666,539.437 326.103,513 358.666,513C391.229,513 417.666,539.437 417.666,572" style="fill:none;stroke:black;stroke-width:8.97px;stroke-miterlimit:1.5;"/>
                    </g>
                </g>
            </g>
            <g transform="matrix(0.5261,0,0,0.910632,854.783,-416.423)">
                <path d="M235.851,213.745C230.264,213.745 225.468,213.346 221.463,212.548C217.459,211.75 214.208,210.958 211.712,210.171C209.216,209.384 207.448,208.99 206.408,208.99C205.306,208.99 204.451,209.23 203.843,209.71C203.235,210.189 202.677,210.747 202.17,211.384C201.663,212.021 201.093,212.579 200.459,213.059C199.826,213.538 198.945,213.778 197.816,213.778C196.765,213.778 195.9,213.586 195.222,213.202C194.544,212.817 194.059,212.197 193.768,211.34L186.755,194.066C186.501,193.378 186.621,192.787 187.115,192.292C187.609,191.798 188.439,191.438 189.606,191.211C190.847,190.969 191.934,190.99 192.865,191.272C193.797,191.553 194.598,192.086 195.269,192.869C198.616,196.793 202.395,199.945 206.609,202.324C210.822,204.703 215.317,206.431 220.095,207.507C224.872,208.583 229.731,209.121 234.673,209.121C241.757,209.121 247.291,208.016 251.276,205.805C255.261,203.594 257.273,200.706 257.311,197.141C257.349,194.901 256.485,192.831 254.717,190.931C252.949,189.032 249.598,187.19 244.661,185.408C239.725,183.625 232.512,181.808 223.021,179.956C213.555,178.074 205.959,175.962 200.231,173.619C194.503,171.276 190.346,168.584 187.761,165.542C185.176,162.5 183.884,159.025 183.884,155.115C183.884,150.811 185.623,147.05 189.102,143.832C192.58,140.614 197.449,138.116 203.709,136.337C209.97,134.558 217.23,133.669 225.492,133.669C231.486,133.669 236.381,134.046 240.176,134.8C243.971,135.554 247.025,136.317 249.338,137.089C251.65,137.862 253.529,138.248 254.973,138.248C256.367,138.248 257.302,137.865 257.777,137.1C258.252,136.335 258.775,135.561 259.345,134.778C259.915,133.995 261.012,133.603 262.634,133.603C263.749,133.603 264.661,133.808 265.371,134.218C266.081,134.627 266.714,135.371 267.272,136.447L276.471,154.226C276.877,155.009 276.839,155.714 276.358,156.34C275.876,156.966 275.046,157.393 273.868,157.62C272.626,157.846 271.529,157.82 270.579,157.542C269.628,157.264 268.824,156.759 268.164,156.027C264.414,151.612 260.347,148.111 255.962,145.523C251.577,142.936 246.981,141.078 242.172,139.95C237.363,138.823 232.411,138.259 227.317,138.259C220.069,138.259 214.288,139.456 209.973,141.85C205.658,144.244 203.501,147.395 203.501,151.304C203.501,153.596 204.407,155.74 206.219,157.735C208.031,159.729 211.348,161.659 216.17,163.522C220.992,165.385 227.894,167.279 236.879,169.204C246.724,171.298 254.523,173.509 260.277,175.837C266.03,178.165 270.145,180.751 272.623,183.595C275.1,186.439 276.32,189.677 276.281,193.308C276.244,197.042 274.65,200.457 271.501,203.554C268.352,206.651 263.787,209.123 257.806,210.972C251.825,212.82 244.506,213.745 235.851,213.745Z" style="fill-rule:nonzero;"/>
                <path d="M372.517,133.295C382.617,133.295 391.788,134.296 400.031,136.299C408.275,138.301 415.364,141.125 421.301,144.771C427.237,148.417 431.809,152.723 435.015,157.69C438.221,162.657 439.824,168.124 439.824,174.091C439.824,179.889 438.227,185.223 435.034,190.091C431.841,194.959 427.289,199.18 421.377,202.753C415.466,206.325 408.395,209.093 400.164,211.055C391.934,213.017 382.8,213.998 372.765,213.998C362.805,213.998 353.731,212.997 345.545,210.994C337.359,208.992 330.301,206.168 324.37,202.522C318.44,198.876 313.872,194.564 310.666,189.586C307.46,184.607 305.858,179.135 305.858,173.169C305.858,167.371 307.445,162.043 310.618,157.185C313.792,152.328 318.325,148.113 324.218,144.54C330.11,140.967 337.143,138.2 345.317,136.238C353.49,134.276 362.557,133.295 372.517,133.295ZM417.014,181.163C417.014,176.347 416.181,171.778 414.515,167.459C412.848,163.14 410.51,159.199 407.5,155.637C404.491,152.076 400.927,148.991 396.808,146.385C392.69,143.779 388.154,141.764 383.199,140.34C378.245,138.916 373.011,138.204 367.499,138.204C359.82,138.204 353.085,139.324 347.294,141.564C341.503,143.805 336.995,147.008 333.77,151.173C330.545,155.339 328.933,160.324 328.933,166.129C328.933,170.969 329.756,175.553 331.404,179.883C333.051,184.214 335.37,188.165 338.361,191.738C341.352,195.31 344.897,198.405 348.996,201.023C353.095,203.64 357.612,205.66 362.548,207.084C367.483,208.508 372.688,209.22 378.163,209.22C385.943,209.22 392.741,208.095 398.558,205.844C404.374,203.593 408.904,200.374 412.148,196.186C415.392,191.999 417.014,186.991 417.014,181.163Z" style="fill-rule:nonzero;"/>
                <path d="M562.177,179.67L558.832,144.672C558.692,143.325 558.052,142.28 556.912,141.537C555.771,140.794 553.94,140.276 551.419,139.983L546.211,139.445C544.424,139.218 543.217,138.918 542.59,138.545C541.963,138.171 541.649,137.702 541.649,137.138C541.649,136.531 542.058,136.044 542.875,135.678C543.692,135.312 544.829,135.129 546.287,135.129L580.121,135.129C581.641,135.129 582.801,135.312 583.599,135.678C584.398,136.044 584.797,136.531 584.797,137.138C584.797,137.725 584.454,138.203 583.77,138.572C583.085,138.941 581.894,139.236 580.196,139.456L575.312,139.917C572.346,140.268 570.347,140.867 569.314,141.712C568.282,142.558 567.835,143.636 567.975,144.946L571.377,179.757C571.58,181.588 571.761,183.381 571.919,185.138C572.077,186.895 572.213,188.725 572.327,190.629C572.594,195.131 570.918,199.13 567.3,202.626C563.682,206.122 558.195,208.869 550.839,210.868C543.483,212.866 534.299,213.866 523.287,213.866C511.591,213.866 501.801,212.916 493.92,211.016C486.038,209.116 480.136,206.437 476.214,202.978C472.292,199.519 470.426,195.454 470.616,190.783C470.654,189.809 470.743,188.576 470.882,187.082C471.022,185.589 471.18,183.947 471.357,182.157C471.535,180.367 471.706,178.542 471.871,176.683L474.969,143.486C475.096,142.446 474.643,141.658 473.61,141.12C472.578,140.582 470.94,140.199 468.696,139.972L463.45,139.445C460.384,139.086 458.851,138.328 458.851,137.172C458.851,136.542 459.26,136.044 460.077,135.678C460.894,135.312 462.063,135.129 463.584,135.129L508.519,135.129C510.04,135.129 511.199,135.312 511.998,135.678C512.796,136.044 513.195,136.542 513.195,137.172C513.195,137.736 512.859,138.203 512.188,138.572C511.516,138.941 510.318,139.225 508.595,139.423L503.273,139.972C501.271,140.17 499.811,140.525 498.892,141.038C497.973,141.55 497.451,142.337 497.324,143.399L494.205,176.485C493.952,179.157 493.756,181.573 493.617,183.733C493.477,185.893 493.37,187.876 493.294,189.684C493.027,196.046 495.97,200.796 502.123,203.933C508.275,207.07 516.825,208.638 527.773,208.638C535.25,208.638 541.646,207.919 546.962,206.481C552.277,205.042 556.335,202.98 559.135,200.293C561.936,197.606 563.222,194.392 562.994,190.651C562.88,188.14 562.754,186.042 562.614,184.358C562.474,182.675 562.329,181.112 562.177,179.67Z" style="fill-rule:nonzero;"/>
                <path d="M647.635,209.978C647.635,210.586 647.233,211.071 646.429,211.433C645.624,211.795 644.399,211.984 642.751,211.999L610.343,211.999C608.696,211.984 607.463,211.795 606.646,211.433C605.829,211.071 605.42,210.586 605.42,209.978C605.42,208.975 606.649,208.225 609.107,207.727L614.676,206.881C617.603,206.332 619.558,205.728 620.54,205.069C621.522,204.411 622.013,203.327 622.013,201.819L622.013,151.008C622.013,149.925 621.754,149.008 621.234,148.258C620.714,147.508 619.46,146.455 617.471,145.101L609.127,139.313C608.264,138.662 607.678,138.164 607.368,137.82C607.057,137.476 606.902,137.132 606.902,136.788C606.902,136.246 607.244,135.834 607.928,135.552C608.612,135.27 609.519,135.129 610.647,135.129L626.994,135.129C628.616,135.129 629.978,135.294 631.081,135.623C632.184,135.953 633.33,136.575 634.521,137.49L714.715,197.053L710.723,201.929L710.723,145.309C710.723,143.83 710.264,142.756 709.345,142.086C708.427,141.416 706.44,140.803 703.386,140.247L697.854,139.401C695.396,138.859 694.167,138.109 694.167,137.15C694.167,136.506 694.576,136.008 695.393,135.656C696.21,135.305 697.43,135.129 699.051,135.129L731.46,135.129C733.107,135.129 734.339,135.305 735.157,135.656C735.975,136.008 736.384,136.506 736.384,137.15C736.384,138.138 735.154,138.888 732.695,139.401L727.126,140.247C724.199,140.759 722.244,141.35 721.262,142.02C720.28,142.69 719.789,143.786 719.789,145.309L719.789,198.349C719.789,199.417 719.967,200.305 720.321,201.012C720.676,201.719 721.272,202.398 722.109,203.049L727.945,207.353C728.907,208.071 729.518,208.624 729.778,209.012C730.038,209.4 730.168,209.788 730.168,210.176C730.168,210.717 729.826,211.157 729.142,211.494C728.457,211.83 727.424,211.999 726.042,211.999L706.769,211.999C704.259,211.999 703.004,211.413 703.004,210.242C703.004,209.671 702.824,209.148 702.463,208.672C702.102,208.196 701.054,207.306 699.317,206.003L624.085,149.888L631.081,146.781L631.081,201.841C631.081,203.29 631.546,204.345 632.477,205.003C633.408,205.662 635.388,206.288 638.417,206.881L643.948,207.727C646.406,208.24 647.635,208.99 647.635,209.978Z" style="fill-rule:nonzero;"/>
            </g>
        </g>
    </g>
</svg>
