<?xml version="1.0" encoding="UTF-8" standalone="no"?><!DOCTYPE svg PUBLIC "-//W3C//DTD SVG 1.1//EN" "http://www.w3.org/Graphics/SVG/1.1/DTD/svg11.dtd"><svg width="100%" height="100%" viewBox="0 0 2365 155" version="1.1" xmlns="http://www.w3.org/2000/svg" xmlns:xlink="http://www.w3.org/1999/xlink" xml:space="preserve" xmlns:serif="http://www.serif.com/" style="fill-rule:evenodd;clip-rule:evenodd;stroke-linejoin:round;stroke-miterlimit:1.5;"><g><g><path d="M26.76,4.229l74.292,-0c2.362,-0 4.222,-0.362 5.583,-1.084c1.361,-0.722 2.579,-1.427 3.656,-2.114c1.076,-0.687 2.309,-1.031 3.698,-1.031c1.819,0 3.229,0.441 4.23,1.322c1,0.882 1.771,2.372 2.313,4.469l7.104,32.813c0.347,1.652 0.246,3.003 -0.303,4.051c-0.549,1.049 -1.518,1.699 -2.906,1.949c-1.306,0.278 -2.466,0.15 -3.479,-0.385c-1.014,-0.535 -1.862,-1.546 -2.542,-3.032c-3.305,-7.987 -6.156,-13.976 -8.551,-17.969c-2.396,-3.993 -4.889,-6.681 -7.48,-8.063c-2.591,-1.381 -5.879,-2.072 -9.864,-2.072l-16.437,-0l-0,121.979c-0,1.485 0.451,2.694 1.354,3.625c0.903,0.931 2.18,1.597 3.833,2l6.832,1.271c2.653,0.722 3.98,2.145 3.98,4.271c-0,2.555 -1.716,3.833 -5.146,3.833l-46.042,-0c-1.764,-0 -3.063,-0.351 -3.897,-1.052c-0.833,-0.702 -1.25,-1.629 -1.25,-2.781c0,-2.126 1.327,-3.549 3.98,-4.271l6.833,-1.271c1.68,-0.403 2.965,-1.069 3.855,-2c0.889,-0.931 1.333,-2.14 1.333,-3.625l0,-121.979l-16.437,-0c-3.917,-0 -7.178,0.691 -9.782,2.072c-2.604,1.382 -5.104,4.07 -7.5,8.063c-2.396,3.993 -5.267,9.982 -8.615,17.969c-0.638,1.486 -1.474,2.497 -2.509,3.032c-1.036,0.535 -2.206,0.663 -3.511,0.385c-1.361,-0.25 -2.316,-0.9 -2.865,-1.949c-0.549,-1.048 -0.663,-2.399 -0.343,-4.051l7.104,-32.813c0.542,-2.097 1.312,-3.587 2.312,-4.469c1,-0.881 2.41,-1.322 4.23,-1.322c1.43,0 2.673,0.344 3.729,1.031c1.055,0.687 2.274,1.392 3.656,2.114c1.382,0.722 3.233,1.084 5.552,1.084Z" style="fill-rule:nonzero;"/><path d="M253.989,31.812l9.104,3.042l-32.041,98.667c-0.486,1.401 -0.871,2.721 -1.156,3.957c-0.285,1.236 -0.427,2.66 -0.427,4.272l-0,3.729c-0,1.472 -0.392,2.604 -1.177,3.396c-0.784,0.791 -1.843,1.187 -3.177,1.187l-17.834,-0c-1.445,-0 -2.57,-0.396 -3.376,-1.187c-0.806,-0.792 -1.209,-1.924 -1.209,-3.396l0,-3.729c0,-1.223 -0.114,-2.289 -0.343,-3.199c-0.229,-0.909 -0.628,-2.294 -1.198,-4.156l-35.957,-115.145c-0.57,-1.834 -1.275,-3.168 -2.115,-4.001c-0.84,-0.833 -1.976,-1.486 -3.406,-1.958l-4.751,-1.312c-1.444,-0.459 -2.434,-1.028 -2.969,-1.709c-0.535,-0.68 -0.802,-1.472 -0.802,-2.374c0,-1.154 0.431,-2.053 1.292,-2.699c0.862,-0.646 2.202,-0.968 4.021,-0.968l43.375,-0c1.806,-0 3.139,0.333 4.001,1c0.861,0.666 1.292,1.597 1.292,2.792c0,1.93 -1.257,3.18 -3.771,3.75l-8,1.208c-1.736,0.347 -2.743,1.114 -3.021,2.302c-0.277,1.187 -0.027,3.094 0.751,5.718l35.499,114.896l-8.562,6.354l35.957,-110.437Zm66.063,-23.75c-0,-1.222 0.448,-2.167 1.344,-2.833c0.896,-0.667 2.212,-1 3.948,-1l32.041,-0c1.89,-0 3.244,0.343 4.063,1.031c0.819,0.687 1.229,1.6 1.229,2.74c-0,0.888 -0.267,1.618 -0.802,2.187c-0.534,0.57 -1.621,1.153 -3.261,1.75l-4.292,1.396c-1.971,0.778 -3.606,1.98 -4.905,3.605c-1.299,1.625 -2.469,4.221 -3.511,7.79l-32.77,108.793c-0.5,1.846 -0.889,3.332 -1.167,4.458c-0.278,1.125 -0.417,2.382 -0.417,3.771l0,3.729c0,1.472 -0.382,2.604 -1.146,3.396c-0.764,0.791 -1.812,1.187 -3.146,1.187l-18.958,-0c-1.375,-0 -2.465,-0.396 -3.271,-1.187c-0.806,-0.792 -1.208,-1.924 -1.208,-3.396l-0,-3.729c-0,-1.14 -0.032,-2.234 -0.094,-3.282c-0.062,-1.049 -0.392,-2.532 -0.99,-4.448l-34.437,-114.77c-0.681,-2.237 -1.351,-3.74 -2.01,-4.511c-0.66,-0.771 -1.622,-1.337 -2.886,-1.697l-4.709,-1.313c-1.43,-0.444 -2.419,-0.951 -2.968,-1.521c-0.548,-0.569 -0.822,-1.285 -0.822,-2.146c-0,-1.222 0.448,-2.167 1.343,-2.833c0.896,-0.667 2.212,-1 3.948,-1l42.355,-0c1.806,-0 3.139,0.333 4,1c0.861,0.666 1.291,1.611 1.291,2.833c0,0.959 -0.323,1.754 -0.969,2.386c-0.646,0.631 -1.684,1.128 -3.114,1.489l-7.73,1.167c-1.624,0.347 -2.603,1.034 -2.937,2.062c-0.333,1.028 -0.097,2.986 0.709,5.876l34.186,114.603l-7.27,5.542l35.208,-117.229c0.972,-3.222 1.139,-5.66 0.5,-7.312c-0.639,-1.653 -2.528,-2.875 -5.667,-3.667l-6.937,-1.208c-1.375,-0.361 -2.347,-0.844 -2.917,-1.449c-0.57,-0.604 -0.854,-1.358 -0.854,-2.26Z" style="fill-rule:nonzero;"/><path d="M464.822,0.749c11.07,-0 21.122,1.899 30.157,5.698c9.035,3.799 16.806,9.157 23.312,16.073c6.507,6.917 11.517,15.087 15.031,24.51c3.514,9.424 5.271,19.795 5.271,31.115c0,11 -1.75,21.118 -5.25,30.354c-3.5,9.236 -8.489,17.243 -14.968,24.021c-6.479,6.778 -14.229,12.028 -23.25,15.751c-9.022,3.722 -19.032,5.583 -30.031,5.583c-10.917,0 -20.862,-1.899 -29.834,-5.698c-8.973,-3.799 -16.709,-9.157 -23.209,-16.073c-6.5,-6.917 -11.507,-15.098 -15.02,-24.542c-3.514,-9.445 -5.271,-19.827 -5.271,-31.146c0,-10.999 1.74,-21.107 5.219,-30.322c3.478,-9.216 8.447,-17.213 14.905,-23.99c6.459,-6.778 14.167,-12.028 23.125,-15.751c8.959,-3.722 18.896,-5.583 29.813,-5.583Zm48.771,90.814c0,-9.139 -0.913,-17.805 -2.74,-26c-1.827,-8.194 -4.389,-15.67 -7.688,-22.427c-3.298,-6.758 -7.205,-12.609 -11.719,-17.553c-4.514,-4.945 -9.486,-8.768 -14.916,-11.469c-5.43,-2.702 -11.166,-4.052 -17.208,-4.052c-8.417,-0 -15.799,2.125 -22.146,6.375c-6.347,4.25 -11.288,10.327 -14.822,18.229c-3.535,7.903 -5.302,17.361 -5.302,28.374c-0,9.181 0.903,17.879 2.708,26.094c1.806,8.215 4.347,15.712 7.625,22.49c3.278,6.777 7.164,12.649 11.657,17.614c4.492,4.966 9.443,8.799 14.853,11.5c5.41,2.701 11.115,4.052 17.115,4.052c8.528,0 15.979,-2.135 22.354,-6.405c6.374,-4.271 11.34,-10.378 14.896,-18.322c3.555,-7.945 5.333,-17.445 5.333,-28.5Z" style="fill-rule:nonzero;"/></g><path d="M765.798,4.229c2.445,-0 4.403,-0.362 5.876,-1.084c1.472,-0.722 2.795,-1.427 3.969,-2.114c1.173,-0.687 2.434,-1.031 3.781,-1.031c1.708,0 3.01,0.431 3.906,1.292c0.896,0.861 1.628,2.34 2.198,4.437l8.104,29.728c0.416,1.403 0.285,2.57 -0.396,3.501c-0.68,0.93 -1.687,1.506 -3.021,1.729c-1.221,0.236 -2.35,0.108 -3.385,-0.385c-1.035,-0.493 -1.893,-1.483 -2.573,-2.97c-3.125,-6.999 -5.99,-12.242 -8.594,-15.728c-2.604,-3.486 -5.396,-5.822 -8.375,-7.01c-2.979,-1.188 -6.614,-1.781 -10.906,-1.781l-28.811,-0l-0,122.249c-0,1.485 0.43,2.732 1.291,3.738c0.861,1.007 2.16,1.636 3.896,1.887l10.561,1.229c1.556,0.236 2.664,0.702 3.324,1.396c0.66,0.695 0.989,1.667 0.989,2.917c0,1.152 -0.406,2.079 -1.219,2.781c-0.812,0.701 -2.122,1.052 -3.927,1.052l-50.104,-0c-1.765,-0 -3.063,-0.351 -3.897,-1.052c-0.833,-0.702 -1.25,-1.629 -1.25,-2.781c0,-2.126 1.327,-3.549 3.98,-4.271l6.834,-1.271c1.68,-0.403 2.964,-1.069 3.853,-2c0.89,-0.931 1.334,-2.14 1.334,-3.625l0,-115.833c0,-1.486 -0.444,-2.694 -1.334,-3.625c-0.889,-0.931 -2.173,-1.598 -3.853,-2l-6.834,-1.272c-2.653,-0.721 -3.98,-2.145 -3.98,-4.27c0,-1.222 0.417,-2.167 1.25,-2.833c0.834,-0.667 2.132,-1 3.897,-1l73.416,-0Zm-48.937,72.229l36.437,0c4.293,0 7.293,-0.826 9.001,-2.479c1.708,-1.653 2.93,-4.918 3.667,-9.793c0.278,-1.333 0.739,-2.323 1.385,-2.969c0.645,-0.645 1.51,-1.03 2.594,-1.155c2.403,-0.251 3.93,0.95 4.584,3.603l7.561,29.939c0.376,1.458 0.348,2.611 -0.083,3.458c-0.43,0.848 -1.215,1.451 -2.353,1.812c-1.154,0.32 -2.227,0.268 -3.22,-0.156c-0.992,-0.423 -1.899,-1.246 -2.719,-2.468c-1.639,-3.056 -3.177,-5.406 -4.614,-7.052c-1.438,-1.646 -3.063,-2.772 -4.875,-3.376c-1.812,-0.604 -4.142,-0.907 -6.991,-0.907l-40.374,0l-0,-8.457Z" style="fill-rule:nonzero;"/><path d="M863.279,135.062c-0,1.485 0.451,2.694 1.354,3.625c0.903,0.931 2.18,1.597 3.833,2l6.832,1.271c2.653,0.722 3.98,2.145 3.98,4.271c-0,1.152 -0.406,2.079 -1.218,2.781c-0.813,0.701 -2.121,1.052 -3.927,1.052l-46.043,-0c-1.763,-0 -3.062,-0.351 -3.895,-1.052c-0.833,-0.702 -1.25,-1.629 -1.25,-2.781c-0,-2.126 1.326,-3.549 3.978,-4.271l6.834,-1.271c1.681,-0.403 2.966,-1.069 3.854,-2c0.889,-0.931 1.333,-2.14 1.333,-3.625l0,-115.833c0,-1.486 -0.444,-2.694 -1.333,-3.625c-0.888,-0.931 -2.173,-1.598 -3.854,-2l-6.834,-1.272c-2.652,-0.721 -3.978,-2.145 -3.978,-4.27c-0,-1.222 0.417,-2.167 1.25,-2.833c0.833,-0.667 2.132,-1 3.895,-1l46.043,-0c1.806,-0 3.114,0.333 3.927,1c0.812,0.666 1.218,1.611 1.218,2.833c-0,2.125 -1.327,3.549 -3.98,4.27l-6.832,1.272c-1.653,0.402 -2.93,1.069 -3.833,2c-0.903,0.931 -1.354,2.139 -1.354,3.625l-0,115.833Z" style="fill-rule:nonzero;"/><path d="M1115.71,12.332l-6.833,1.272c-1.652,0.402 -2.93,1.069 -3.833,2c-0.902,0.931 -1.354,2.139 -1.354,3.625l0,114.936c0,2.584 0.809,4.448 2.427,5.594c1.618,1.146 4.149,1.719 7.594,1.719l21.895,-0c4.056,-0 7.476,-0.521 10.26,-1.563c2.785,-1.041 5.236,-2.875 7.355,-5.499c2.118,-2.625 4.191,-6.333 6.218,-11.125l5.854,-13.958c0.681,-1.432 1.486,-2.411 2.417,-2.938c0.931,-0.527 2.063,-0.652 3.396,-0.374c1.403,0.277 2.382,0.892 2.937,1.843c0.556,0.951 0.619,2.239 0.189,3.865l-8.854,36.271c-0.57,2.069 -1.334,3.597 -2.292,4.583c-0.959,0.986 -2.292,1.48 -4,1.48c-1.389,-0 -2.695,-0.334 -3.917,-1.001c-1.222,-0.666 -2.566,-1.333 -4.032,-2c-1.465,-0.667 -3.316,-1 -5.552,-1l-77.084,-0c-1.763,-0 -3.061,-0.351 -3.894,-1.052c-0.834,-0.702 -1.25,-1.629 -1.25,-2.781c-0,-2.126 1.326,-3.549 3.977,-4.271l6.835,-1.271c1.681,-0.403 2.965,-1.069 3.854,-2c0.889,-0.931 1.333,-2.14 1.333,-3.625l-0,-115.833c-0,-1.486 -0.444,-2.694 -1.333,-3.625c-0.889,-0.931 -2.173,-1.598 -3.854,-2l-6.835,-1.272c-2.651,-0.721 -3.977,-2.145 -3.977,-4.27c-0,-1.222 0.416,-2.167 1.25,-2.833c0.833,-0.667 2.131,-1 3.894,-1l46.044,-0c1.805,-0 3.114,0.333 3.926,1c0.813,0.666 1.219,1.611 1.219,2.833c-0,2.125 -1.327,3.549 -3.98,4.27Z" style="fill-rule:nonzero;"/><path d="M1432.67,153.374c-6.124,0 -11.381,-0.757 -15.77,-2.27c-4.389,-1.514 -7.951,-3.018 -10.687,-4.511c-2.736,-1.493 -4.674,-2.239 -5.813,-2.239c-1.208,-0 -2.145,0.455 -2.812,1.365c-0.667,0.909 -1.278,1.968 -1.834,3.177c-0.555,1.208 -1.18,2.267 -1.875,3.177c-0.694,0.91 -1.66,1.365 -2.897,1.365c-1.152,-0 -2.1,-0.365 -2.843,-1.094c-0.743,-0.729 -1.275,-1.907 -1.594,-3.532l-7.687,-32.772c-0.278,-1.305 -0.146,-2.427 0.396,-3.364c0.541,-0.938 1.451,-1.622 2.729,-2.053c1.361,-0.458 2.552,-0.419 3.573,0.116c1.021,0.535 1.899,1.545 2.635,3.031c3.667,7.444 7.81,13.423 12.428,17.937c4.618,4.514 9.545,7.792 14.781,9.834c5.236,2.041 10.563,3.062 15.979,3.062c7.764,-0 13.83,-2.097 18.198,-6.292c4.368,-4.194 6.572,-9.673 6.614,-16.436c0.042,-4.25 -0.906,-8.177 -2.843,-11.781c-1.937,-3.604 -5.611,-7.098 -11.021,-10.48c-5.41,-3.382 -13.317,-6.83 -23.719,-10.343c-10.375,-3.57 -18.701,-7.577 -24.979,-12.022c-6.278,-4.444 -10.834,-9.552 -13.667,-15.323c-2.833,-5.771 -4.25,-12.364 -4.25,-19.781c0,-8.166 1.906,-15.301 5.719,-21.406c3.812,-6.105 9.149,-10.844 16.01,-14.219c6.862,-3.374 14.82,-5.062 23.875,-5.062c6.57,0 11.935,0.715 16.095,2.146c4.159,1.43 7.506,2.877 10.041,4.343c2.535,1.465 4.594,2.198 6.177,2.198c1.528,-0 2.552,-0.726 3.073,-2.177c0.521,-1.451 1.093,-2.92 1.718,-4.406c0.625,-1.486 1.827,-2.229 3.606,-2.229c1.221,0 2.221,0.389 2.999,1.166c0.778,0.778 1.473,2.187 2.084,4.23l10.083,33.728c0.444,1.487 0.403,2.824 -0.125,4.012c-0.528,1.187 -1.437,1.996 -2.729,2.427c-1.361,0.43 -2.563,0.381 -3.605,-0.146c-1.041,-0.528 -1.924,-1.486 -2.646,-2.875c-4.11,-8.375 -8.568,-15.018 -13.374,-19.927c-4.806,-4.91 -9.844,-8.434 -15.115,-10.573c-5.271,-2.139 -10.698,-3.209 -16.282,-3.209c-7.944,0 -14.28,2.271 -19.009,6.812c-4.73,4.542 -7.094,10.521 -7.094,17.937c-0,4.348 0.993,8.415 2.979,12.199c1.986,3.785 5.622,7.445 10.907,10.979c5.284,3.535 12.85,7.128 22.697,10.781c10.791,3.972 19.34,8.167 25.646,12.584c6.306,4.416 10.816,9.322 13.532,14.718c2.715,5.395 4.052,11.538 4.009,18.427c-0.041,7.083 -1.787,13.562 -5.239,19.438c-3.452,5.875 -8.455,10.566 -15.011,14.073c-6.555,3.507 -14.576,5.26 -24.063,5.26Z" style="fill-rule:nonzero;"/><g><path d="M1017.66,32.345l-92.677,-0" style="fill:none;stroke:#000;stroke-width:10.42px;"/><path d="M1017.66,124.86l-92.677,0" style="fill:none;stroke:#000;stroke-width:10.42px;"/><path d="M1017.66,94.022l-92.677,-0" style="fill:none;stroke:#000;stroke-width:10.42px;"/><path d="M1017.66,63.183l-92.677,0" style="fill:none;stroke:#000;stroke-width:10.42px;"/></g><g><path d="M1247.81,96.812c11.025,0 19.976,-8.951 19.976,-19.976c0,-11.025 -8.951,-19.976 -19.976,-19.976" style="fill:none;stroke:#000;stroke-width:10.42px;"/><path d="M1247.81,112.881c19.894,0 36.046,-16.151 36.046,-36.045c-0,-19.894 -16.152,-36.045 -36.046,-36.045" style="fill:none;stroke:#000;stroke-width:10.42px;"/><path d="M1247.81,129.022c28.802,-0 52.186,-23.384 52.186,-52.186c-0,-28.802 -23.384,-52.185 -52.186,-52.185" style="fill:none;stroke:#000;stroke-width:10.42px;"/><path d="M1247.81,145.343c37.81,-0 68.507,-30.697 68.507,-68.507c0,-37.81 -30.697,-68.507 -68.507,-68.507" style="fill:none;stroke:#000;stroke-width:10.42px;"/></g><g><path d="M1683.1,153.582c-6.124,0 -11.381,-0.756 -15.77,-2.27c-4.389,-1.514 -7.952,-3.017 -10.688,-4.51c-2.736,-1.493 -4.673,-2.24 -5.813,-2.24c-1.207,0 -2.145,0.455 -2.811,1.365c-0.667,0.91 -1.278,1.969 -1.834,3.177c-0.555,1.208 -1.18,2.267 -1.875,3.177c-0.694,0.91 -1.66,1.365 -2.897,1.365c-1.152,-0 -2.1,-0.365 -2.843,-1.094c-0.744,-0.729 -1.275,-1.906 -1.594,-3.532l-7.687,-32.772c-0.278,-1.305 -0.146,-2.426 0.396,-3.364c0.541,-0.937 1.451,-1.622 2.729,-2.052c1.361,-0.458 2.552,-0.42 3.573,0.115c1.021,0.535 1.899,1.545 2.635,3.031c3.667,7.445 7.81,13.424 12.428,17.938c4.618,4.514 9.545,7.791 14.781,9.833c5.236,2.041 10.563,3.062 15.979,3.062c7.764,0 13.83,-2.097 18.198,-6.291c4.368,-4.195 6.572,-9.673 6.613,-16.437c0.043,-4.25 -0.905,-8.177 -2.842,-11.781c-1.938,-3.604 -5.611,-7.097 -11.022,-10.479c-5.41,-3.383 -13.316,-6.83 -23.719,-10.344c-10.374,-3.57 -18.7,-7.577 -24.978,-12.021c-6.279,-4.445 -10.834,-9.552 -13.667,-15.323c-2.834,-5.771 -4.25,-12.365 -4.25,-19.781c-0,-8.167 1.906,-15.302 5.718,-21.407c3.813,-6.104 9.15,-10.844 16.011,-14.218c6.862,-3.375 14.82,-5.062 23.875,-5.062c6.57,-0 11.935,0.715 16.094,2.145c4.16,1.43 7.507,2.878 10.042,4.343c2.535,1.465 4.593,2.198 6.177,2.198c1.527,0 2.552,-0.725 3.072,-2.177c0.521,-1.451 1.094,-2.92 1.719,-4.406c0.625,-1.486 1.827,-2.229 3.605,-2.229c1.222,0 2.222,0.389 3,1.167c0.778,0.777 1.472,2.187 2.083,4.229l10.083,33.729c0.445,1.486 0.404,2.823 -0.124,4.011c-0.528,1.188 -1.438,1.997 -2.729,2.427c-1.362,0.43 -2.563,0.381 -3.605,-0.146c-1.042,-0.527 -1.924,-1.485 -2.646,-2.874c-4.111,-8.376 -8.569,-15.019 -13.374,-19.928c-4.806,-4.909 -9.844,-8.434 -15.115,-10.573c-5.271,-2.139 -10.698,-3.209 -16.282,-3.209c-7.944,0 -14.28,2.271 -19.01,6.813c-4.729,4.541 -7.093,10.52 -7.093,17.937c-0,4.348 0.993,8.414 2.979,12.199c1.986,3.784 5.622,7.444 10.906,10.979c5.285,3.534 12.851,7.128 22.698,10.78c10.791,3.972 19.34,8.167 25.646,12.584c6.305,4.417 10.816,9.323 13.531,14.718c2.716,5.396 4.052,11.538 4.01,18.427c-0.041,7.084 -1.788,13.563 -5.239,19.438c-3.452,5.875 -8.455,10.566 -15.011,14.073c-6.555,3.507 -14.576,5.26 -24.063,5.26Z" style="fill-rule:nonzero;"/><path d="M1832.89,0.957c11.069,0 21.122,1.899 30.157,5.698c9.034,3.799 16.805,9.157 23.312,16.074c6.506,6.916 11.517,15.086 15.031,24.51c3.514,9.423 5.271,19.794 5.271,31.114c-0,11 -1.75,21.119 -5.25,30.355c-3.5,9.236 -8.489,17.243 -14.968,24.021c-6.479,6.778 -14.229,12.028 -23.251,15.75c-9.021,3.722 -19.031,5.583 -30.031,5.583c-10.917,0 -20.861,-1.899 -29.834,-5.698c-8.972,-3.799 -16.708,-9.156 -23.208,-16.073c-6.501,-6.917 -11.507,-15.098 -15.021,-24.542c-3.513,-9.444 -5.27,-19.826 -5.27,-31.146c0,-10.999 1.739,-21.107 5.218,-30.322c3.479,-9.216 8.447,-17.212 14.906,-23.99c6.458,-6.778 14.166,-12.028 23.125,-15.75c8.958,-3.723 18.896,-5.584 29.813,-5.584Zm48.771,90.814c-0,-9.139 -0.914,-17.805 -2.74,-26c-1.827,-8.194 -4.39,-15.67 -7.688,-22.427c-3.299,-6.757 -7.205,-12.608 -11.719,-17.553c-4.514,-4.945 -9.486,-8.768 -14.916,-11.469c-5.43,-2.701 -11.166,-4.052 -17.208,-4.052c-8.417,0 -15.799,2.125 -22.146,6.376c-6.347,4.25 -11.288,10.326 -14.823,18.229c-3.534,7.902 -5.302,17.36 -5.302,28.374c0,9.18 0.903,17.878 2.709,26.093c1.805,8.216 4.347,15.712 7.625,22.49c3.278,6.778 7.163,12.649 11.656,17.615c4.493,4.965 9.444,8.798 14.854,11.499c5.409,2.702 11.114,4.052 17.115,4.052c8.527,0 15.978,-2.135 22.353,-6.405c6.375,-4.27 11.34,-10.378 14.896,-18.322c3.556,-7.944 5.334,-17.444 5.334,-28.5Z" style="fill-rule:nonzero;"/><path d="M2040.77,88.937l-3.667,-66.396c-0.153,-2.556 -0.855,-4.538 -2.105,-5.948c-1.25,-1.409 -3.257,-2.392 -6.02,-2.947l-5.708,-1.021c-1.959,-0.43 -3.282,-1 -3.969,-1.709c-0.688,-0.708 -1.031,-1.597 -1.031,-2.667c-0,-1.153 0.447,-2.076 1.343,-2.77c0.896,-0.695 2.142,-1.042 3.74,-1.042l37.083,-0c1.667,-0 2.937,0.347 3.813,1.042c0.875,0.694 1.312,1.617 1.312,2.77c0,1.112 -0.375,2.018 -1.125,2.719c-0.751,0.701 -2.056,1.26 -3.917,1.677l-5.353,0.876c-3.251,0.666 -5.442,1.801 -6.574,3.405c-1.132,1.605 -1.621,3.65 -1.468,6.136l3.729,66.041c0.222,3.472 0.42,6.875 0.594,10.209c0.173,3.333 0.322,6.805 0.447,10.416c0.292,8.542 -1.545,16.129 -5.51,22.761c-3.965,6.632 -9.979,11.843 -18.042,15.635c-8.063,3.792 -18.129,5.688 -30.198,5.688c-12.82,-0 -23.549,-1.802 -32.188,-5.406c-8.639,-3.604 -15.108,-8.688 -19.406,-15.25c-4.299,-6.563 -6.344,-14.275 -6.135,-23.136c0.041,-1.847 0.138,-4.187 0.291,-7.02c0.153,-2.833 0.327,-5.948 0.521,-9.344c0.194,-3.397 0.382,-6.859 0.563,-10.386l3.395,-62.979c0.139,-1.972 -0.357,-3.469 -1.489,-4.489c-1.132,-1.021 -2.927,-1.747 -5.386,-2.177l-5.75,-1c-3.361,-0.681 -5.041,-2.119 -5.041,-4.313c0,-1.194 0.448,-2.139 1.344,-2.833c0.896,-0.695 2.177,-1.042 3.843,-1.042l49.252,-0c1.666,-0 2.937,0.347 3.812,1.042c0.875,0.694 1.313,1.639 1.313,2.833c0,1.07 -0.368,1.955 -1.104,2.656c-0.737,0.701 -2.049,1.24 -3.938,1.615l-5.834,1.042c-2.194,0.375 -3.794,1.049 -4.801,2.021c-1.007,0.972 -1.58,2.465 -1.719,4.479l-3.418,62.771c-0.278,5.069 -0.493,9.652 -0.645,13.75c-0.153,4.097 -0.271,7.86 -0.354,11.29c-0.292,12.069 2.934,21.08 9.677,27.031c6.743,5.952 16.114,8.928 28.114,8.928c8.195,-0 15.205,-1.365 21.031,-4.094c5.827,-2.729 10.274,-6.642 13.343,-11.739c3.07,-5.098 4.479,-11.195 4.23,-18.291c-0.125,-4.765 -0.264,-8.745 -0.417,-11.939c-0.153,-3.194 -0.312,-6.159 -0.478,-8.895Z" style="fill-rule:nonzero;"/><path d="M2134.43,146.437c-0,1.153 -0.441,2.072 -1.323,2.76c-0.881,0.687 -2.225,1.045 -4.03,1.073l-35.521,0c-1.806,-0.028 -3.156,-0.386 -4.052,-1.073c-0.896,-0.688 -1.344,-1.607 -1.344,-2.76c0,-1.903 1.347,-3.327 4.042,-4.271l6.103,-1.604c3.209,-1.042 5.351,-2.188 6.428,-3.438c1.076,-1.25 1.614,-3.306 1.614,-6.167l0,-96.395c0,-2.055 -0.285,-3.794 -0.854,-5.218c-0.57,-1.424 -1.945,-3.42 -4.125,-5.99l-9.145,-10.979c-0.945,-1.236 -1.588,-2.181 -1.928,-2.833c-0.34,-0.653 -0.51,-1.306 -0.51,-1.959c-0,-1.028 0.375,-1.809 1.124,-2.344c0.75,-0.535 1.744,-0.802 2.981,-0.802l17.916,-0c1.778,-0 3.271,0.312 4.479,0.937c1.209,0.625 2.466,1.806 3.772,3.542l87.895,113l-4.375,9.249l0,-107.415c0,-2.806 -0.503,-4.844 -1.51,-6.115c-1.007,-1.271 -3.185,-2.434 -6.532,-3.489l-6.063,-1.605c-2.694,-1.028 -4.041,-2.451 -4.041,-4.271c-0,-1.222 0.448,-2.166 1.343,-2.833c0.896,-0.667 2.233,-1 4.01,-1l35.521,-0c1.805,-0 3.156,0.333 4.053,1c0.896,0.667 1.344,1.611 1.344,2.833c0,1.875 -1.348,3.298 -4.043,4.271l-6.103,1.605c-3.209,0.972 -5.351,2.093 -6.428,3.364c-1.076,1.27 -1.614,3.35 -1.614,6.24l-0,100.623c-0,2.028 0.194,3.713 0.583,5.053c0.389,1.341 1.042,2.629 1.959,3.865l6.396,8.166c1.055,1.361 1.725,2.41 2.01,3.147c0.284,0.736 0.427,1.472 0.427,2.208c-0,1.027 -0.375,1.86 -1.125,2.5c-0.75,0.639 -1.882,0.958 -3.397,0.958l-21.124,0c-2.751,0 -4.126,-1.111 -4.126,-3.333c-0,-1.083 -0.198,-2.076 -0.594,-2.979c-0.395,-0.902 -1.544,-2.59 -3.448,-5.063l-82.457,-106.458l7.667,-5.896l0,104.458c0,2.75 0.511,4.75 1.531,6c1.021,1.25 3.191,2.437 6.51,3.563l6.063,1.604c2.694,0.973 4.041,2.396 4.041,4.271Z" style="fill-rule:nonzero;"/><g><path d="M2290.98,97.02c11.025,0 19.976,-8.951 19.976,-19.976c0,-11.025 -8.951,-19.976 -19.976,-19.976" style="fill:none;stroke:#000;stroke-width:10.42px;"/><path d="M2290.98,113.09c19.894,-0 36.046,-16.152 36.046,-36.046c-0,-19.894 -16.152,-36.045 -36.046,-36.045" style="fill:none;stroke:#000;stroke-width:10.42px;"/><path d="M2290.98,129.23c28.802,-0 52.186,-23.384 52.186,-52.186c-0,-28.802 -23.384,-52.185 -52.186,-52.185" style="fill:none;stroke:#000;stroke-width:10.42px;"/><path d="M2290.98,145.551c37.81,0 68.507,-30.697 68.507,-68.507c0,-37.81 -30.697,-68.506 -68.507,-68.506" style="fill:none;stroke:#000;stroke-width:10.42px;"/></g></g></g></svg>