<?xml version="1.0" encoding="UTF-8" standalone="no"?><!DOCTYPE svg PUBLIC "-//W3C//DTD SVG 1.1//EN" "http://www.w3.org/Graphics/SVG/1.1/DTD/svg11.dtd"><svg width="100%" height="100%" viewBox="0 0 157 148" version="1.1" xmlns="http://www.w3.org/2000/svg" xmlns:xlink="http://www.w3.org/1999/xlink" xml:space="preserve" xmlns:serif="http://www.serif.com/" style="fill-rule:evenodd;clip-rule:evenodd;stroke-linejoin:round;stroke-miterlimit:1.5;"><g><path d="M151.042,27.458l-145.834,-0" style="fill:none;stroke:#ead3a1;stroke-width:10.42px;"/><path d="M151.042,119.973l-145.834,-0" style="fill:none;stroke:#ead3a1;stroke-width:10.42px;"/><path d="M151.042,89.134l-145.834,0" style="fill:none;stroke:#ead3a1;stroke-width:10.42px;"/><path d="M151.042,58.296l-145.834,-0" style="fill:none;stroke:#ead3a1;stroke-width:10.42px;"/></g><g><path d="M43.872,93.691c11.025,0 19.976,-8.951 19.976,-19.976c-0,-11.025 -8.951,-19.976 -19.976,-19.976" style="fill:none;stroke:#a2b0ad;stroke-width:10.42px;"/><path d="M43.872,109.761c19.894,-0 36.045,-16.152 36.045,-36.046c-0,-19.894 -16.151,-36.045 -36.045,-36.045" style="fill:none;stroke:#a2b0ad;stroke-width:10.42px;"/><path d="M43.872,125.901c28.802,-0 52.185,-23.384 52.185,-52.186c0,-28.802 -23.383,-52.185 -52.185,-52.185" style="fill:none;stroke:#a2b0ad;stroke-width:10.42px;"/><path d="M43.872,142.222c37.81,0 68.506,-30.697 68.506,-68.507c0,-37.81 -30.696,-68.507 -68.506,-68.507" style="fill:none;stroke:#a2b0ad;stroke-width:10.42px;"/></g></svg>